<svg width="32" height="32" viewBox="0 0 32 32" fill="none" xmlns="http://www.w3.org/2000/svg">
<path d="M31 16.5C31.0001 15.1753 30.6242 13.8777 29.9162 12.7581C29.2081 11.6385 28.1969 10.7428 27 10.175V9.00003C26.9991 7.71145 26.5834 6.45738 25.8144 5.42342C25.0454 4.38946 23.9639 3.63055 22.73 3.25899C21.4962 2.88744 20.1755 2.92297 18.9634 3.36035C17.7513 3.79773 16.7123 4.61371 16 5.68753C15.2877 4.61371 14.2486 3.79773 13.0365 3.36035C11.8244 2.92297 10.5037 2.88744 9.26989 3.25899C8.03603 3.63055 6.95458 4.38946 6.18557 5.42342C5.41656 6.45738 5.00085 7.71145 4.99996 9.00003V10.175C3.80288 10.7426 2.79146 11.6383 2.08322 12.7579C1.37499 13.8776 0.999023 15.1752 0.999023 16.5C0.999023 17.8249 1.37499 19.1225 2.08322 20.2421C2.79146 21.3618 3.80288 22.2574 4.99996 22.825V23C5.00085 24.2886 5.41656 25.5427 6.18557 26.5766C6.95458 27.6106 8.03603 28.3695 9.26989 28.7411C10.5037 29.1126 11.8244 29.0771 13.0365 28.6397C14.2486 28.2023 15.2877 27.3864 16 26.3125C16.7123 27.3864 17.7513 28.2023 18.9634 28.6397C20.1755 29.0771 21.4962 29.1126 22.73 28.7411C23.9639 28.3695 25.0454 27.6106 25.8144 26.5766C26.5834 25.5427 26.9991 24.2886 27 23V22.825C28.1959 22.2561 29.2063 21.3601 29.9142 20.2407C30.6221 19.1214 30.9986 17.8244 31 16.5ZM11 27C10.0131 26.9995 9.06126 26.6341 8.3275 25.9741C7.59373 25.3142 7.12982 24.4063 7.02496 23.425C7.34746 23.4758 7.67349 23.5009 7.99996 23.5H8.99996C9.26518 23.5 9.51953 23.3947 9.70707 23.2071C9.89461 23.0196 9.99996 22.7652 9.99996 22.5C9.99996 22.2348 9.89461 21.9805 9.70707 21.7929C9.51953 21.6054 9.26518 21.5 8.99996 21.5H7.99996C6.82161 21.498 5.68183 21.0799 4.78171 20.3195C3.88158 19.559 3.27896 18.5051 3.08015 17.3436C2.88134 16.1822 3.09913 14.9878 3.69508 13.9713C4.29104 12.9547 5.22686 12.1813 6.33746 11.7875C6.53179 11.7159 6.6995 11.5865 6.81796 11.4166C6.93642 11.2467 6.99995 11.0446 6.99996 10.8375V9.00003C6.99996 7.93916 7.42139 6.92175 8.17154 6.1716C8.92168 5.42146 9.9391 5.00003 11 5.00003C12.0608 5.00003 13.0782 5.42146 13.8284 6.1716C14.5785 6.92175 15 7.93916 15 9.00003V18.5375C13.9052 17.5439 12.4784 16.9955 11 17C10.7347 17 10.4804 17.1054 10.2929 17.2929C10.1053 17.4805 9.99996 17.7348 9.99996 18C9.99996 18.2652 10.1053 18.5196 10.2929 18.7071C10.4804 18.8947 10.7347 19 11 19C12.0608 19 13.0782 19.4215 13.8284 20.1716C14.5785 20.9217 15 21.9392 15 23C15 24.0609 14.5785 25.0783 13.8284 25.8285C13.0782 26.5786 12.0608 27 11 27ZM24 21.5H23C22.7348 21.5 22.4804 21.6054 22.2929 21.7929C22.1053 21.9805 22 22.2348 22 22.5C22 22.7652 22.1053 23.0196 22.2929 23.2071C22.4804 23.3947 22.7348 23.5 23 23.5H24C24.3264 23.5009 24.6525 23.4758 24.975 23.425C24.8928 24.1938 24.5897 24.9222 24.1022 25.5222C23.6147 26.1223 22.9638 26.5682 22.2282 26.806C21.4926 27.0439 20.7038 27.0634 19.9573 26.8624C19.2108 26.6613 18.5386 26.2482 18.0219 25.6731C17.5053 25.098 17.1664 24.3855 17.0462 23.6217C16.9261 22.858 17.0298 22.0759 17.3449 21.3699C17.6599 20.6639 18.1728 20.0643 18.8215 19.6438C19.4702 19.2232 20.2269 18.9996 21 19C21.2652 19 21.5195 18.8947 21.7071 18.7071C21.8946 18.5196 22 18.2652 22 18C22 17.7348 21.8946 17.4805 21.7071 17.2929C21.5195 17.1054 21.2652 17 21 17C19.5215 16.9955 18.0948 17.5439 17 18.5375V9.00003C17 7.93916 17.4214 6.92175 18.1715 6.1716C18.9217 5.42146 19.9391 5.00003 21 5.00003C22.0608 5.00003 23.0782 5.42146 23.8284 6.1716C24.5785 6.92175 25 7.93916 25 9.00003V10.8375C25 11.0446 25.0635 11.2467 25.182 11.4166C25.3004 11.5865 25.4681 11.7159 25.6625 11.7875C26.7731 12.1813 27.7089 12.9547 28.3048 13.9713C28.9008 14.9878 29.1186 16.1822 28.9198 17.3436C28.721 18.5051 28.1183 19.559 27.2182 20.3195C26.3181 21.0799 25.1783 21.498 24 21.5ZM7.49996 16C7.23475 16 6.98039 15.8947 6.79286 15.7071C6.60532 15.5196 6.49996 15.2652 6.49996 15C6.49996 14.7348 6.60532 14.4805 6.79286 14.2929C6.98039 14.1054 7.23475 14 7.49996 14C8.16199 13.9967 8.79597 13.7323 9.2641 13.2642C9.73223 12.796 9.99668 12.1621 9.99996 11.5V10.5C9.99996 10.2348 10.1053 9.98046 10.2929 9.79292C10.4804 9.60539 10.7347 9.50003 11 9.50003C11.2652 9.50003 11.5195 9.60539 11.7071 9.79292C11.8946 9.98046 12 10.2348 12 10.5V11.5C12 12.6935 11.5259 13.8381 10.6819 14.682C9.83803 15.5259 8.69344 16 7.49996 16ZM25.5 15C25.5 15.2652 25.3946 15.5196 25.2071 15.7071C25.0195 15.8947 24.7652 16 24.5 16C23.3065 16 22.1619 15.5259 21.318 14.682C20.4741 13.8381 20 12.6935 20 11.5V10.5C20 10.2348 20.1053 9.98046 20.2929 9.79292C20.4804 9.60539 20.7348 9.50003 21 9.50003C21.2652 9.50003 21.5195 9.60539 21.7071 9.79292C21.8946 9.98046 22 10.2348 22 10.5V11.5C22.0033 12.1621 22.2677 12.796 22.7358 13.2642C23.204 13.7323 23.8379 13.9967 24.5 14C24.7652 14 25.0195 14.1054 25.2071 14.2929C25.3946 14.4805 25.5 14.7348 25.5 15Z" fill="#471515"/>
</svg>
